<?xml version="1.0" encoding="utf-8"?>
<!-- Generator: Adobe Illustrator 25.2.0, SVG Export Plug-In . SVG Version: 6.00 Build 0)  -->
<svg version="1.1" id="Layer_1" xmlns="http://www.w3.org/2000/svg" xmlns:xlink="http://www.w3.org/1999/xlink" x="0px" y="0px"
	 width="16px" height="16px" viewBox="0 0 16 16" style="enable-background:new 0 0 16 16;" xml:space="preserve">
<style type="text/css">
	.st0{fill:#232230;}
	.st1{fill:none;stroke:#FF0000;stroke-width:2;stroke-miterlimit:10;}
	.st2{fill:none;stroke:#00FF97;stroke-width:2;stroke-miterlimit:10;}
	.st3{fill:none;stroke:#00B7FF;stroke-width:2;stroke-miterlimit:10;}
	.st4{fill:none;stroke:#FF00C3;stroke-width:2;stroke-miterlimit:10;}
	.st5{fill:none;stroke:#595959;stroke-miterlimit:10;}
</style>
<g>
	<polygon class="st0" points="16,7 16,0 3.5,0 3.5,3.5 0,3.5 0,14 5,14 5,16 13,16 13,14 16,14 16,9 15,9 15,7 	"/>
</g>
<g>
	<line class="st1" x1="14" y1="5" x2="7.5" y2="5"/>
</g>
<line class="st2" x1="5.5" y1="8" x2="9.5" y2="8"/>
<line class="st3" x1="2" y1="11" x2="8" y2="11"/>
<line class="st4" x1="9" y1="11" x2="14" y2="11"/>
<g>
	<line class="st5" x1="2" y1="5.5" x2="7" y2="5.5"/>
</g>
<g>
	<line class="st5" x1="10" y1="7.5" x2="12.5" y2="7.5"/>
</g>
<g>
	<line class="st5" x1="2" y1="7.5" x2="5" y2="7.5"/>
</g>
<g>
	<line class="st5" x1="5.5" y1="2.5" x2="14" y2="2.5"/>
</g>
<g>
	<line class="st5" x1="6.5" y1="13.5" x2="11.5" y2="13.5"/>
</g>
<path class="st5" d="M-0.5,2.5"/>
</svg>
