<?xml version="1.0" encoding="utf-8"?>
<!-- Generator: Adobe Illustrator 25.2.0, SVG Export Plug-In . SVG Version: 6.00 Build 0)  -->
<svg version="1.1" id="Layer_1" xmlns="http://www.w3.org/2000/svg" xmlns:xlink="http://www.w3.org/1999/xlink" x="0px" y="0px"
	 width="16px" height="16px" viewBox="0 0 16 16" style="enable-background:new 0 0 16 16;" xml:space="preserve">
<style type="text/css">
	.st0{fill:#232230;}
	.st1{fill:none;stroke:#FF0000;stroke-miterlimit:10;}
	.st2{fill:none;stroke:#0000FF;stroke-miterlimit:10;}
	.st3{fill:none;stroke:#00FF97;stroke-miterlimit:10;}
	.st4{fill:none;stroke:#00B7FF;stroke-miterlimit:10;}
	.st5{fill:none;stroke:#FF00C3;stroke-miterlimit:10;}
	.st6{fill:none;stroke:#989E20;stroke-miterlimit:10;}
	.st7{fill:none;stroke:#595959;stroke-miterlimit:10;}
</style>
<g>
	<rect x="0.5" y="0.5" class="st0" width="15" height="15"/>
	<path d="M15,1v14H1V1H15 M16,0H0v16h16V0L16,0z"/>
</g>
<g>
	<line class="st1" x1="7.5" y1="4.5" x2="4.5" y2="4.5"/>
</g>
<line class="st2" x1="5.5" y1="10.5" x2="9.5" y2="10.5"/>
<line class="st3" x1="1.5" y1="6.5" x2="8.5" y2="6.5"/>
<line class="st4" x1="1.5" y1="8.5" x2="5.5" y2="8.5"/>
<line class="st5" x1="7.5" y1="8.5" x2="10.5" y2="8.5"/>
<g>
	<line class="st6" x1="1.5" y1="12.5" x2="5.5" y2="12.5"/>
</g>
<g>
	<line class="st7" x1="1.5" y1="2.5" x2="11.5" y2="2.5"/>
</g>
<g>
	<line class="st7" x1="1.5" y1="4.5" x2="3.5" y2="4.5"/>
</g>
<g>
	<line class="st7" x1="6.5" y1="12.5" x2="9" y2="12.5"/>
</g>
<g>
	<line class="st7" x1="1.5" y1="10.5" x2="4.5" y2="10.5"/>
</g>
<g>
	<line class="st7" x1="9.5" y1="6.5" x2="11.5" y2="6.5"/>
</g>
</svg>
